<?xml version="1.0" encoding="UTF-8"?><svg id="Layer_7" xmlns="http://www.w3.org/2000/svg" viewBox="0 0 300 29.93"><defs><style>.cls-1{fill:#fff;}.cls-2{fill:#09bcbe;}</style></defs><path class="cls-2" d="M33.08.63c-.08,0-.16,0-.24,0-1.72,0-3.22,1.03-4.01,2.55-.79-1.52-2.29-2.55-4.01-2.55-.08,0-.16,0-.24,0-2.42.14-4.35,2.32-4.35,5,0,2.98,2,4.17,3.73,5.68.24.2.47.4.69.58,1.4,1.13,2.74,2.36,4,3.69l.18.19.18-.19c1.25-1.33,2.59-2.55,4-3.69.22-.18.46-.38.69-.58,1.74-1.51,3.73-2.7,3.73-5.68,0-2.68-1.93-4.86-4.35-5Z"/><path class="cls-2" d="M23.35,29.31c-.84,0-1.67-.14-2.46-.44l-5.52-2.29c-1.36-.56-2.98-.56-4.33.01l-5,2.12c-1.1.42-2.3-.05-2.71-1.03h0S.13,19.99.13,19.99c-.19-.47-.18-.97.05-1.43.25-.5.73-.86,1.31-1.01l10.91-2.71c1.95-.48,4.02-.4,5.85.24.57.2,1.12.43,1.65.68.24.11.47.23.71.35.9.45,1.67.85,2.84,1,.59.08,1.2.08,1.81,0,.11-.01.2-.02.31-.01.66.02,1.32.17,1.91.42.46.2.88.46,1.24.77.07.06.24.1.41.06l6.25-1.59c1.61-.51,3.49.11,4.32,1.45.83,1.33.46,3-.88,3.97-.09.06-.18.12-.27.17l-11.99,6.18c-.98.5-2.09.76-3.2.76ZM13.22,24.43c.96,0,1.91.19,2.81.56l5.49,2.28c1.36.5,2.95.41,4.24-.25l11.99-6.18s.04-.02.06-.03c.6-.43.78-1.12.43-1.67-.43-.68-1.48-.99-2.39-.7l-6.29,1.6c-.7.18-1.45.01-1.96-.43-.23-.2-.5-.37-.8-.49-.5-.21-.98-.27-1.29-.28-.8.09-1.55.09-2.28,0-1.46-.19-2.44-.69-3.39-1.17-.22-.11-.44-.22-.67-.33-.47-.22-.97-.43-1.48-.61-1.51-.53-3.24-.6-4.87-.2l-10.91,2.71c-.14.03-.18.1-.19.12l3.2,7.67c.03.08.26.18.48.1l4.96-2.11c.91-.38,1.88-.58,2.85-.58Z"/><path class="cls-2" d="M22.49,23.82c-1.83,0-4.27-.94-5.16-1.59-.38-.28-.47-.82-.18-1.2.28-.38.82-.47,1.2-.18.59.43,2.66,1.26,4.14,1.26,2.1,0,4.6-.52,5.14-1.65.01-.02.03-.06.05-.1.08-.15.12-.24-.04-.56-.07-.14-.18-.27-.32-.39-.36-.31-.4-.85-.09-1.21s.85-.4,1.21-.09c.31.26.55.57.72.91.57,1.11.18,1.85.04,2.13l-.03.05c-1.16,2.44-5.42,2.63-6.69,2.63Z"/><path class="cls-1" d="M32.73,6.94h-2.42v-2.42s-.03-.08-.08-.08h-2.81s-.08.03-.08.08v2.42h-2.42s-.08.03-.08.08v2.81s.03.08.08.08h2.42v2.42s.03.08.08.08h2.81s.08-.03.08-.08v-2.42h2.42s.08-.03.08-.08v-2.81s-.03-.08-.08-.08Z"/><path class="cls-2" d="M58.74,19.82c-.76,1.42-2.26,2.06-4.24,2.06-3.36,0-5.3-2.16-5.3-5.54v-1.62c0-3.48,1.99-5.5,5.3-5.5,1.84,0,3.36.66,4.24,1.91l-1.55,1.08c-.54-.79-1.57-1.23-2.7-1.23-2.11,0-3.34,1.42-3.34,3.73v1.62c0,2.11.98,3.78,3.34,3.78,1.15,0,2.21-.39,2.72-1.37l1.52,1.08Z"/><path class="cls-2" d="M70.29,16.34c0,3.19-1.57,5.54-5.1,5.54-3.26,0-5.1-2.16-5.1-5.54v-1.62c0-3.48,1.89-5.5,5.1-5.5s5.1,1.99,5.1,5.5v1.62ZM68.33,16.34v-1.62c0-2.33-1.13-3.73-3.14-3.73s-3.14,1.42-3.14,3.73v1.62c0,2.11.88,3.78,3.14,3.78,2.09,0,3.14-1.69,3.14-3.78Z"/><path class="cls-2" d="M72.87,9.42h1.96v1.2c.54-.83,1.47-1.4,3.04-1.4s2.9.66,3.58,1.94c.83-1.3,2.18-1.94,3.68-1.94,2.63,0,4.22,1.62,4.22,4.81v7.66h-1.96v-7.63c0-2.23-1.1-3.02-2.55-3.02-1.57,0-2.75,1.25-2.75,2.99v7.66h-1.96v-7.63c0-2.23-1.1-3.02-2.55-3.02-1.59,0-2.75,1.3-2.75,2.99v7.66h-1.96v-12.27Z"/><path class="cls-2" d="M97.84,9.22c3.04,0,4.91,1.99,4.91,5.5v1.62c0,3.19-1.57,5.54-4.91,5.54-1.62,0-2.67-.52-3.34-1.42v5.89h-1.96V9.42h1.96v1.23c.66-.91,1.72-1.42,3.34-1.42ZM100.79,16.34v-1.62c0-2.33-1.13-3.73-3.14-3.73s-3.14,1.35-3.14,3.56v1.79c0,2.11.88,3.78,3.14,3.78,2.09,0,3.14-1.69,3.14-3.78Z"/><path class="cls-2" d="M109.3,14.6h2.92v-1.42c0-1.74-.81-2.13-2.72-2.13-1.47,0-2.26.12-2.94,1.25l-1.47-1.03c.86-1.42,2.11-2.04,4.44-2.04,3.12,0,4.66,1.01,4.66,3.95v8.51h-1.96v-1.2c-.69,1.13-1.52,1.4-3.12,1.4-2.85,0-4.39-1.4-4.39-3.78,0-2.65,1.89-3.51,4.59-3.51ZM112.22,16.27h-2.92c-1.94,0-2.63.66-2.63,1.89,0,1.37.98,1.91,2.43,1.91,1.82,0,3.12-.34,3.12-3.09v-.71Z"/><path class="cls-2" d="M124.02,12.07c-.52-.71-1.15-1.03-2.06-1.03-1.5,0-2.63,1.13-2.63,2.97v7.68h-1.96v-12.27h1.96v1.2c.52-.86,1.35-1.4,2.85-1.4,1.67,0,2.72.56,3.51,1.67l-1.67,1.18Z"/><path class="cls-2" d="M135.97,19.82c-.86,1.5-2.16,2.06-4.29,2.06-3.29,0-5.25-2.13-5.25-5.54v-1.62c0-3.48,1.64-5.5,4.86-5.5s4.86,1.99,4.86,5.5v1.28h-7.75v.34c0,2.11,1.01,3.78,3.14,3.78,1.59,0,2.4-.47,2.92-1.37l1.52,1.08ZM128.39,14.28h5.77c-.1-2.06-1.01-3.29-2.87-3.29s-2.77,1.25-2.9,3.29Z"/><path class="cls-2" d="M137.76,9.42h1.57v-2.7h3.12v2.7h2.4v2.65h-2.4v5.13c0,1.23.25,1.74,1.4,1.74h1.01v2.75h-1.32c-2.97,0-4.2-.83-4.2-4v-5.62h-1.57v-2.65Z"/><path class="cls-2" d="M153.44,12.83c-.32-.47-.76-.93-1.55-.93-1.18,0-1.96.86-1.96,2.58v7.21h-3.14v-12.27h3.07v1.03c.42-.61,1.23-1.25,2.67-1.25s2.58.64,3.31,1.91l-2.4,1.72Z"/><path class="cls-2" d="M166.17,19.82c-.86,1.5-2.28,2.09-4.49,2.09-3.68,0-5.45-2.38-5.45-5.54v-1.67c0-3.7,1.86-5.5,5.05-5.5,3.46,0,5.05,2.01,5.05,5.74v1.4h-6.99c.02,1.69.56,2.92,2.31,2.92,1.3,0,1.72-.39,2.18-1.06l2.33,1.62ZM159.35,14.11h3.85c-.07-1.59-.71-2.26-1.89-2.26-1.25,0-1.84.86-1.96,2.26Z"/><path class="cls-2" d="M172.52,14.33h2.43v-.71c0-1.37-.42-1.82-2.18-1.82-1.2,0-1.79.17-2.31.98l-2.21-1.55c.91-1.5,2.28-2.04,4.81-2.04,3.17,0,4.96.93,4.96,4.44v8.05h-3.07v-1.08c-.49.83-1.23,1.3-2.65,1.3-2.55,0-4.32-1.35-4.32-3.85s1.96-3.73,4.54-3.73ZM174.95,16.63h-2.06c-1.28,0-1.84.42-1.84,1.37s.71,1.37,1.79,1.37c1.42,0,2.11-.61,2.11-2.28v-.47Z"/><path class="cls-2" d="M179.61,9.42h1.57v-2.7h3.12v2.7h2.4v2.65h-2.4v5.13c0,1.23.25,1.74,1.4,1.74h1.01v2.75h-1.32c-2.97,0-4.2-.83-4.2-4v-5.62h-1.57v-2.65Z"/><path class="cls-2" d="M198.7,21.69h-3.12v-7.19c0-1.96-.76-2.6-1.86-2.6s-1.94.83-1.94,2.58v7.21h-3.14v-12.27h3.07v1.03c.47-.64,1.35-1.25,2.72-1.25,1.47,0,2.67.56,3.44,1.64.79-.96,1.99-1.64,3.53-1.64,2.67,0,4.24,1.62,4.24,4.81v7.68h-3.14v-7.19c0-1.84-.64-2.6-1.89-2.6-1.13,0-1.91.83-1.91,2.58v7.21Z"/><path class="cls-2" d="M217.64,19.82c-.86,1.5-2.28,2.09-4.49,2.09-3.68,0-5.45-2.38-5.45-5.54v-1.67c0-3.7,1.86-5.5,5.05-5.5,3.46,0,5.05,2.01,5.05,5.74v1.4h-6.99c.02,1.69.56,2.92,2.31,2.92,1.3,0,1.72-.39,2.18-1.06l2.33,1.62ZM210.82,14.11h3.85c-.07-1.59-.71-2.26-1.89-2.26-1.25,0-1.84.86-1.96,2.26Z"/><path class="cls-2" d="M220.07,9.42h3.07v1.03c.47-.61,1.45-1.25,2.82-1.25,2.48,0,4.49,1.18,4.49,4.81v7.68h-3.12v-7.19c0-1.91-.69-2.6-1.96-2.6-1.45,0-2.16.96-2.16,2.58v7.21h-3.14v-12.27Z"/><path class="cls-2" d="M232.07,9.42h1.57v-2.7h3.12v2.7h2.4v2.65h-2.4v5.13c0,1.23.25,1.74,1.4,1.74h1.01v2.75h-1.32c-2.97,0-4.2-.83-4.2-4v-5.62h-1.57v-2.65Z"/><path class="cls-2" d="M247.82,12.88c-.54-.64-1.08-.98-2.4-.98-.81,0-1.55.25-1.55.96s.66,1.01,1.96,1.2c3.02.47,4.54,1.62,4.54,4.05s-1.64,3.8-4.81,3.8c-2.5,0-4.02-.61-5.08-2.04l2.4-1.72c.49.66,1.1,1.05,2.63,1.05,1.08,0,1.74-.37,1.74-1.01,0-.76-.54-1.01-2.09-1.25-2.55-.42-4.42-1.5-4.42-3.97,0-2.33,1.67-3.78,4.74-3.78,2.01,0,3.68.47,4.64,2.04l-2.31,1.64Z"/><path class="cls-2" d="M255.55,21.69h-2.85v-2.85h2.85v2.85Z"/><path class="cls-2" d="M267.4,19.82c-.76,1.42-2.26,2.06-4.24,2.06-3.36,0-5.3-2.16-5.3-5.54v-1.62c0-3.48,1.99-5.5,5.3-5.5,1.84,0,3.36.66,4.24,1.91l-1.55,1.08c-.54-.79-1.57-1.23-2.7-1.23-2.11,0-3.34,1.42-3.34,3.73v1.62c0,2.11.98,3.78,3.34,3.78,1.15,0,2.21-.39,2.72-1.37l1.52,1.08Z"/><path class="cls-2" d="M278.95,16.34c0,3.19-1.57,5.54-5.1,5.54-3.26,0-5.1-2.16-5.1-5.54v-1.62c0-3.48,1.89-5.5,5.1-5.5s5.1,1.99,5.1,5.5v1.62ZM276.99,16.34v-1.62c0-2.33-1.13-3.73-3.14-3.73s-3.14,1.42-3.14,3.73v1.62c0,2.11.88,3.78,3.14,3.78,2.09,0,3.14-1.69,3.14-3.78Z"/><path class="cls-2" d="M281.53,9.42h1.96v1.2c.54-.83,1.47-1.4,3.04-1.4s2.9.66,3.58,1.94c.83-1.3,2.18-1.94,3.68-1.94,2.63,0,4.22,1.62,4.22,4.81v7.66h-1.96v-7.63c0-2.23-1.1-3.02-2.55-3.02-1.57,0-2.75,1.25-2.75,2.99v7.66h-1.96v-7.63c0-2.23-1.1-3.02-2.55-3.02-1.59,0-2.75,1.3-2.75,2.99v7.66h-1.96v-12.27Z"/></svg>