<?xml version="1.0" encoding="UTF-8"?>
<svg id="Layer_2" data-name="Layer 2" xmlns="http://www.w3.org/2000/svg" xmlns:xlink="http://www.w3.org/1999/xlink" viewBox="0 0 380 129">
  <defs>
    <style>
      .cls-1 {
        fill: url(#linear-gradient);
        stroke-width: 0px;
      }
    </style>
    <linearGradient id="linear-gradient" x1="38.02" y1="64.5" x2="341.98" y2="64.5" gradientUnits="userSpaceOnUse">
      <stop offset="0" stop-color="#9c5f54"/>
      <stop offset="1" stop-color="#e58f6f"/>
    </linearGradient>
  </defs>
  <path class="cls-1" d="M309.32,58.63c0,4.95,4.89,8.01,15.71,14.76,10.2,5.93,14.73,12.47,14.73,20.11,0,12.59-13.66,22.81-30.72,22.81-17.03-.2-23.82-7.11-23.82-13.78,0-4.41,2.71-7.36,8.06-7.36,6.25,0,8.06,2.17,10.28,11.16.74,3.07,2.63,4.95,7.53,4.95,6.62,0,10.28-3.6,10.28-8.91,0-4.66-4.77-8.38-14.02-14.27-10.2-6.21-15.75-12.14-15.75-20.85,0-13.49,15.09-21.58,28.87-21.58,15.55,0,21.51,6.58,21.51,12.84,0,4.13-2.71,6.38-7.4,6.38-5.88,0-7.69-2.33-9.67-9.32-.91-3.52-2.71-4.95-6.25-4.95-5.59,0-9.34,2.86-9.34,8.01ZM283.2,110.59c-4.44-1.1-4.44-3.35-4.44-5.68v-27.59c0-18.39-.99-20.11-2.8-23.26-4.93-8.54-17.15-8.71-18.43-8.71-9.5,0-16.74,4.41-21.06,8.46-2.55,2.33-2.8,2.33-3.08,2.33-.54,0-.7-.12-2.8-2.9-4.11-5.48-9.67-7.73-16.62-7.73-7.69,0-13.65,2.9-20.52,8.99-.99.98-1.19.98-1.65.98-.66,0-.66-.61-.66-1.96v-5.93c0-.82,0-1.96-.99-1.96-.37,0-.7,0-3.17,1.51-7.94,4.58-16.99,6.91-22.87,8.18-2.51.45-3.17.61-3.17,2.25,0,1.1.16,1.96,1.81,2.25,6.66,1.1,6.79,1.19,6.95,6.21.45,8.34.45,23.34.45,34.95,0,6.66,0,8.62-5.59,9.97-1.4.41-2.8.57-4.24.53-1.48.04-2.92-.12-4.32-.53-4.73-1.27-5.26-2.45-5.26-8.99v-53.14c0-1.63,0-2.9-1.15-2.9-.33,0-.62,0-1.97.98-6.66,3.96-13.94,6.83-21.55,8.5-4.15.82-4.32.98-4.32,2.33,0,1.06.29,2.04,1.64,2.33,3.91.98,4.61,1.14,5.06,3.6.29,1.8.45,16.35.45,19.25l.16,17.99c0,7.19,0,8.91-4.61,10.26,0,0-.99.37-3.45.37s-3.62-.53-3.62-.53c-4.2-1.1-4.89-2.37-4.89-5.68v-36.91c0-6.34-.53-12.14-4.32-16.02-4.28-4.58-10.04-6.54-16.29-6.54-8.39,0-15.63,3.23-22.05,8.62-1.81,1.64-2.1,1.64-2.26,1.64-.66,0-.66-.74-.66-2.25l.16-23.71v-14.55c0-1.64,0-2.9-1.15-2.9-.33,0-.62,0-1.97.98-6.75,3.88-14.03,6.74-21.63,8.46-4.15.82-4.32.98-4.32,2.33,0,1.06.29,2.04,1.65,2.33,3.91.98,4.61,1.14,5.06,3.6.29,1.84.29,10.91.29,13.82,0,0,0,56.74,0,56.7,0,6.83,0,8.62-4.61,10.26-1.52.45-2.34.74-2.34,2.09,0,2.25,1.11,2.25,3.62,2.25h28.67c2.47,0,4.28-.16,4.28-2.62,0-1.43-1.36-1.68-2.63-1.96-4.69-1.23-5.14-2.66-5.14-6.09v-36.83c0-5.19.99-6.17,3.62-8.62,1.15-1.1,4.61-3.88,9.38-3.88,10.49,0,10.49,9.61,10.49,15.53,0,15.25,0,15.53-.16,29.1-.17,2.94-.17,6.66-.82,8.62-.62,1.47-1.97,1.92-4.07,2.45-1.32.28-1.97.73-1.97,2.08,0,.98.37,2.09,1.52,2.25h111.92c1.97,0,3.78-.08,3.78-2.33,0-1.72-.74-1.8-2.1-2.25-2.92-.65-5.96-1.47-6.25-5.23-.29-2.78-.29-20.68-.29-24.81,0-2.33,0-17,.45-18.15,1.36-3.52,5.96-6.83,10.69-6.83,3.7,0,8.6,1.84,9.58,7.52.66,4.41.66,31.39.66,37.93s0,8.18-5.06,9.69c-1.44.45-1.97.73-1.97,2.08,0,2.17,1.48,2.33,3.46,2.33h28.05c3.7,0,4.98-.29,4.98-2.62,0-1.55-.99-1.8-2.51-2.25-4.48-1.06-5.14-2.05-5.14-6.09v-39.73c0-7.73,8.23-9.81,11.02-9.81,9.38,0,10.03,8.18,10.2,10.51.29,2.37.29,19.95.29,23.83v13.41c0,6.75-1.81,7.2-4.61,8.01-1.52.45-2.34.73-2.34,2.08,0,2.33,1.73,2.62,3.09,2.62h30.85c1.98-.16,2.26-.98,2.26-2.25,0-1.92-.99-2.17-2.63-2.62Z"/>
</svg>