<?xml version="1.0" encoding="UTF-8"?>
<svg id="Layer_2" data-name="Layer 2" xmlns="http://www.w3.org/2000/svg" width="380" height="129" viewBox="0 0 380 129">
  <defs>
    <style>
      .cls-1 {
        fill: #231f20;
        stroke-width: 0px;
      }
    </style>
  </defs>
  <path class="cls-1" d="M39.41,98.71c-.94.13-1.34.22-1.75.22-8.96,0-17.9.02-26.86-.02-.57,0-1.13-.47-1.7-.71.36-.54.66-1.47,1.11-1.56,4.43-.96,5.37-4.73,5.42-8.32.23-15.57.19-31.17.03-46.74-.03-3.93-1.41-7.47-5.68-8.7-.35-.11-.59-.6-.89-.92.38-.31.75-.69,1.16-.89.3-.15.68-.04,1.02-.04,12.43.02,24.85,0,37.28.09,5.47.04,10.32,2.01,14.52,5.64,2.55,2.19,3.61,5.38,4.19,8.56,1.39,7.8-2.19,15.72-9.05,19.11-3.44,1.7-7.45,2.14-11.22,3.08-.78.2-1.61.11-2.62.16.94,2.9,2.87,4.55,5.3,5.08,3.02.65,6.15.78,9.24.98,1.37.09,2.17.34,2.8,1.87,2.34,5.75,4.83,11.42,7.42,17.04.92,2.01,2.36,3.64,4.81,3.88.59.05,1.09,1.02,1.65,1.56-.56.29-1.11.83-1.67.83-6.39.05-12.78-.04-19.15.07-2.36.04-2.31-2.03-2.88-3.32-3.09-7.02-6.01-14.14-8.96-21.21-.24-.6-.36-1.23-.61-1.83-2.05-5.2-2.88-5.75-8.3-5.02-.57.07-1.46,1.11-1.46,1.7-.1,6.38-.35,12.78.07,19.13.23,3.52.99,7.38,5.47,8.23.49.09.8,1.16,1.35,2.05h-.03ZM198.65,55.51c-.64-4.03-1.41-8.03-2.26-12.02-.97-4.59-2.05-9.16-3.14-13.71-.12-.49-.61-1.16-1.01-1.23-.42-.05-1.18.4-1.34.83-.92,2.39-2.85,2.61-4.79,2.28-5.45-.89-10.78-2.25-16.45-1.69-6.67.67-12.62,2.9-18.01,6.96-8.09,6.09-11.25,14.92-12.36,24.75-.75,6.6.28,13.18,2.64,19.25,3.66,9.45,9.99,15.97,20.02,18.18,6.16,1.36,11.88.67,17.24-2.54,2.47-1.49,4.83-2.61,7.71-1.94,1.01.24,2,.51,3,.69,2.41.44,4.6,1.18,6.22,3.34.43.58,1.44.69,2.19,1.02.22-.69.62-1.4.64-2.09.05-6.09,0-12.18.07-18.26.04-3.86,1.27-6.96,5.18-8.27.38-.13.54-.92.8-1.41-.43-.2-.87-.58-1.32-.58-8.94-.05-17.89-.07-26.85-.04-.54,0-1.08.6-1.61.91.4.4.75.96,1.23,1.14,3.37,1.23,5.14,3.59,5.26,7.32.09,2.68-.24,5.42.14,8.03.59,3.95-1.37,5.8-4.43,7-.82.33-1.82.16-2.62.53-3.46,1.6-9.43-1.25-11.43-4.26-3.3-4.93-4.5-10.52-5-16.28-.38-4.39-.26-8.83-.24-13.25.03-7.52.96-14.81,5.09-21.3,2.5-3.93,9.03-6.27,13.32-4.88,4.95,1.61,8.87,4.57,11.81,8.94,3.06,4.57,5.94,9.3,9.1,14.29.38-.56,1.22-1.23,1.13-1.74l.07.02ZM287.09,90.85c-1.65,2.16-3.68,3.68-6.37,3.81-3.54.14-7.09.04-10.63.14-1.48.05-1.89-.53-1.87-2.01.07-6.09,0-12.18.04-18.28,0-2.52-.78-6.11.47-7.27,1.42-1.32,4.71-.45,7.17-.63,3.18-.22,5.35,1.49,6.6,4.22,1.29,2.79,2.08,5.82,3.16,8.9,1.11.29,1.77-.05,1.75-1.74-.05-8.92-.05-17.84,0-26.76,0-1.92-.73-2.19-2.03-1.72-.43,1.74-.71,3.28-1.2,4.77-1.08,3.28-2.22,6.84-5.85,7.63-2.99.65-6.18.34-9.27.33-.26,0-.75-.98-.75-1.5-.05-8.12-.02-16.24-.04-24.37,0-1.29.5-1.81,1.75-1.79,2.78.05,5.57-.22,8.32.07,3.06.33,6.13.92,8.22,3.77,3.42,4.68,6.86,9.37,10.37,13.98.52.69,1.56.96,2.36,1.41.23-1.02.8-2.1.59-3.01-.64-2.97-1.61-5.89-2.38-8.85-1.14-4.39-2.2-8.79-3.39-13.18-.12-.45-.62-.96-1.06-1.11-.31-.11-1.02.18-1.18.51-1.23,2.56-3.44,2.79-5.78,2.79-13.06,0-26.12,0-39.16.04-.64,0-1.27.47-1.91.73.48.49.88,1.18,1.48,1.41,3.02,1.25,4.36,3.93,4.38,6.91.16,16.46.17,32.91,0,49.37-.04,3.15-1.25,6.15-4.86,7.09-.52.13-.8,1.25-1.49,2.39h3.18c12.85,0,25.7.02,38.53-.02,2.35,0,4.53-.07,5.82,2.57.14.31,1.89.25,2,0,.97-2.56,1.75-5.2,2.57-7.81,1.65-5.35,3.4-10.66,4.81-16.06.33-1.25,2.69-3.75-.87-4.22-4.5,5.86-8.98,11.64-13.42,17.46l-.03.04ZM353.36,97.94c-.26-.53-.54-1.23-.97-1.41-3.68-1.49-4.95-3.34-4.97-7.81-.02-13.85,0-27.68,0-41.54,0-3.48-.09-6.96.07-10.44.04-.73.8-1.92,1.37-2.03,4-.73,7.17.89,9.27,4.41,3.51,5.89,6.82,11.93,10.3,17.84.3.51,1.09.82,1.72.94.16.04.71-.91.75-1.43.05-1-.05-2.03-.24-3.01-.73-3.64-1.58-7.25-2.28-10.91-.94-4.91-1.77-9.83-2.73-15.19-.87.42-1.89.56-2.1,1.07-.87,2.08-2.55,2.54-4.36,2.56-13.69.04-27.35.07-41.04-.05-1.34,0-2.71-1.02-3.99-1.7-.66-.36-1.18-1.02-1.77-1.54-.45.74-1.18,1.43-1.32,2.23-.97,5.29-1.75,10.62-2.71,15.9-.59,3.21-1.46,6.36-2.07,9.57-.14.76.24,1.65.4,2.47.78-.34,1.94-.47,2.31-1.09,3.28-5.55,6.36-11.2,9.62-16.77,2.1-3.57,4.93-5.8,9.31-5.46,1.77.15,2.22.73,2.19,2.45-.07,5.44-.03,10.88-.03,16.32v35.88c0,3.57-1.77,6.02-4.86,7.32-.59.24-.89,1.23-1.58,2.3h29.59c.07-.34.24-.69.14-.89l-.02.04ZM102.03,31.05c-8.82-.05-17.64-.05-26.47,0-.47,0-.94.51-1.41.78.38.4.73.85,1.15,1.2,1.02.87,2.19,1.58,3.11,2.56,1.93,2.05,1.67,4.75,1.7,7.34.21,13.24.23,26.49.75,39.72.24,5.95,3.51,10.57,8.42,13.62,2.83,1.76,6.04,2.43,9.34,2.99,6.63,1.12,13.16.83,19.35-1.54,8.73-3.35,12.43-10.86,12.68-20.12.3-10.95-.1-21.9.23-32.85.16-4.97,2.12-9.39,7-11.62.5-.24.82-.91,1.22-1.38-.57-.24-1.15-.67-1.72-.69-5.83-.05-11.67-.05-17.5,0-.56,0-1.09.51-1.63.78.35.47.61,1.16,1.08,1.36,5.31,2.21,7.09,7.02,7.24,12.2.33,11.15.16,22.34.03,33.49-.02,1.96-.54,4.03-1.25,5.86-2.6,6.65-7.54,9.25-14.33,9.08-7.66-.18-13.28-6.71-13.48-13.67-.31-12.31-.07-24.66-.23-36.99-.07-5.08,1.27-9.01,6.49-11.26-.59-.31-1.2-.85-1.79-.85h.02ZM239.34,98.3c-.5-.6-.9-1.47-1.53-1.72-3.59-1.41-5.31-3.77-5.31-7.85,0-15.88,0-31.76-.02-47.63,0-3.25,1.81-6.87,5.3-8.1.5-.18.87-.8,1.28-1.21-.5-.25-.99-.71-1.49-.71-8.96-.04-17.92-.04-26.86,0-.5,0-.99.47-1.48.73.36.4.66,1.02,1.09,1.18,2.29.83,3.94,2.39,4.57,4.79.5,1.94.78,3.99.8,5.98.07,14.14.07,28.28,0,42.41,0,1.99-.26,4.06-.82,5.98-.62,2.16-1.87,3.9-4.31,4.42-.62.13-1.08,1.18-1.61,1.8.19.18.38.34.56.53h29.33l.5-.56v-.02ZM41.98,63.38c3.2.04,5.3-1.54,6.46-4.64,2.52-6.62,2.17-13.2-.33-19.67-.43-1.14-1.56-2.16-2.59-2.86-3.2-2.19-6.88-1.45-10.42-1.61-1.96-.09-2.69.73-2.67,2.79.09,6.58.03,13.16.03,19.76,0,4.16,1.99,6.24,5.97,6.24h3.54Z"/>
</svg>