<?xml version="1.0" encoding="UTF-8"?>
<svg id="Layer_2" data-name="Layer 2" xmlns="http://www.w3.org/2000/svg" viewBox="0 0 380 129">
  <defs>
    <style>
      .cls-1 {
        fill: #000;
        stroke-width: 0px;
      }
    </style>
  </defs>
  <path class="cls-1" d="M36.61,92.06h-9.56c.5-3.03.96-5.89,1.46-8.74.9-5.13,1.82-10.25,2.72-15.38.09-.51.1-1.04.14-1.56.49-6.11-3.58-7.73-8.66-6.07-3.59,1.17-5.17,4.24-5.83,7.74-1.42,7.5-2.74,15.03-4.1,22.54-.08.42-.19.83-.33,1.41H2.64c2.34-13.37,4.66-26.59,7.02-40.01h9.46c-.05,1.13-.1,2.22-.18,3.8,3.24-2.98,6.67-4.78,10.75-4.82,4.22-.04,7.57,1.71,9.89,5.54.76-.66,1.44-1.29,2.17-1.86,4.15-3.24,8.81-4.46,13.96-3.18,5.72,1.42,9.58,7.09,8.91,13.35-.51,4.74-1.41,9.45-2.1,14.17-.19,1.27-.23,2.56-.31,3.52,1.53,2.52,3.61,1.3,5.67,1.35-.5,2.78-.97,5.38-1.51,8.4-2.26.13-4.42.54-6.51.3-5.32-.6-8.6-5.02-7.83-10.38.61-4.21,1.42-8.39,2.12-12.58.21-1.28.42-2.58.46-3.88.16-5.03-3.91-7.58-8.46-5.29-2.68,1.35-4.11,3.75-4.73,6.55-.82,3.73-1.42,7.5-2.09,11.26-.73,4.1-1.43,8.21-2.17,12.31-.09.49-.35.96-.55,1.49Z"/>
  <path class="cls-1" d="M357.3,82.48c1.71,2.41,3.6,1.51,5.75,1.26-.46,2.79-.9,5.38-1.3,7.84-5.51,2.43-9.97,1.13-14.12-4.01-3.54,3.42-7.84,5.05-12.72,5.14-7.28.13-12.67-3.37-15.6-10.04-4.76-10.82.59-24.97,11.36-29.83,4.67-2.11,9.59-2.74,14.43-.75,2.26.93,4.21,2.62,6.52,4.11,1.15-6.3,2.34-12.78,3.54-19.29h9.78c-2.32,15.5-5.68,30.64-7.63,45.58ZM327.44,73.71c.06,3.79.74,7.5,4.68,9.35,4.05,1.9,8.02,1.21,11.5-1.53,3.64-2.87,5.23-6.86,5.39-11.39.15-4.23-1.33-7.82-5.41-9.56-4.07-1.73-8.04-1.07-11.44,1.86-3.39,2.92-4.59,6.83-4.72,11.27Z"/>
  <path class="cls-1" d="M232.43,56.9c.37-1.76.69-3.28,1.05-4.95h9.58c-.6,3.55-1.18,6.95-1.75,10.34-1.02,5.99-2.05,11.99-3.02,17.99-.16.97-.02,2-.02,3.52,1.97.09,3.61.16,5.5.25-.42,2.48-.85,5.01-1.27,7.47-4.91,2.58-9.99,1.2-13.91-3.61-2.2,1.23-4.26,2.77-6.58,3.6-11.89,4.25-22.39-2.45-23.48-15.11-.77-8.93,2.29-16.47,9.74-21.77,7.98-5.67,16.98-4.8,24.16,2.29ZM219.95,59.76c-2.24-.13-4.38.69-6.35,2.11-5.03,3.64-7.08,12.45-4.13,17.9,2.39,4.42,8.93,5.66,13.76,2.61,4.6-2.9,7.37-9.34,6.35-14.71-.98-5.13-4.28-7.9-9.63-7.91Z"/>
  <path class="cls-1" d="M285.17,75.23c.46,3.6,2.26,5.94,5.2,7.47,4.13,2.15,8.44,1.71,12.71.64,2.16-.54,4.24-1.43,6.7-2.28-.51,2.95-.98,5.73-1.52,8.83-1.15.48-2.37,1.1-3.66,1.52-4.38,1.42-8.87,1.78-13.39.94-9.08-1.69-14.51-7.28-15.57-16.45-1.27-10.94,5.47-21.54,16.16-24.27,3.99-1.02,7.94-.85,11.8.51,4.25,1.51,7.17,4.48,8.86,8.64,1.65,4.05,1.71,9.91.13,14.45h-27.42ZM285.98,67.7h18.83c.41-3.57-.81-6.04-3.6-7.43-5.48-2.73-13.8.48-15.23,7.43Z"/>
  <path class="cls-1" d="M110.38,70.64c-.07,14.27-12.72,24.64-26.28,21.55-7.82-1.78-13.22-7.9-14.18-16.07-1.32-11.14,5.3-21.43,15.65-24.33,13.13-3.69,24.88,5.24,24.81,18.85ZM100.35,70.25c-.17-3.57-1.36-7.22-5.3-9.21-3.77-1.91-7.45-1.3-10.77,1.22-4.68,3.56-6.17,11.79-3.13,16.82,2.31,3.82,6.46,5.43,10.79,4.21,4.99-1.41,8.27-6.28,8.4-13.03Z"/>
  <path class="cls-1" d="M161.12,51.88h10c1.78,8.49,3.56,16.94,5.33,25.39.19.05.39.1.58.14,4.7-8.52,9.41-17.03,14.11-25.55h10.62c-7.8,13.59-15.42,26.85-23.07,40.19h-8.6c-2.97-13.3-5.93-26.57-8.97-40.17Z"/>
  <path class="cls-1" d="M271.42,83.33c-.57,3.04-1.09,5.8-1.6,8.52-3.59,1.07-6.93,1.21-10.29.33-5.48-1.43-8.76-5.34-8.52-10.97.19-4.32,1.05-8.61,1.68-12.9.39-2.65.9-5.28,1.41-8.21h-7.14c.48-2.83.91-5.34,1.39-8.17h7.19c.64-3.47,1.24-6.68,1.87-10.09h9.79c-.51,3.26-1,6.44-1.54,9.91h11.23c-.47,2.82-.89,5.34-1.37,8.16h-11.36c-1.14,6.45-2.32,12.58-3.27,18.75-.55,3.58,1.2,5.43,4.88,5.39,1.72-.02,3.43-.42,5.64-.72Z"/>
  <path class="cls-1" d="M119.19,60.03h-7.1c.47-2.83.9-5.41,1.37-8.2h7.09c.38-1.77.74-3.35,1.05-4.94.31-1.61.56-3.24.88-5.06h9.86c-.54,3.25-1.06,6.37-1.64,9.84h11.25c-.47,2.89-.87,5.39-1.32,8.14h-11.3c-.47,2.54-.92,4.89-1.34,7.24-.69,3.93-1.49,7.85-1.99,11.81-.43,3.39.86,4.9,4.29,5.09,1.94.11,3.91-.29,6.16-.49-.53,2.87-1.04,5.63-1.55,8.4-4.46,1.24-8.6,1.28-12.68-.57-4.1-1.85-6.27-5.18-6.09-9.48.2-4.74,1.1-9.46,1.77-14.18.35-2.47.83-4.91,1.29-7.6Z"/>
  <path class="cls-1" d="M157.98,83.89c-.53,2.83-1.01,5.36-1.48,7.85-2.94,1.27-5.74,1.29-8.55.36-3.7-1.23-5.94-4.06-5.83-8.02.09-3.1.64-6.2,1.14-9.27,1.19-7.18,2.47-14.34,3.72-21.51.07-.42.27-.81.45-1.37h9.62c-.25,1.8-.46,3.56-.75,5.3-1.28,7.52-2.57,15.04-3.88,22.55-.65,3.71.37,4.72,4.2,4.11.32-.05.66,0,1.35,0Z"/>
  <path class="cls-1" d="M159.96,41.82c.04,3.28-2.81,6.2-6.08,6.21-3.18.01-5.88-2.66-5.84-5.76.04-3.19,2.76-5.95,5.98-6.05,3.21-.1,5.9,2.43,5.94,5.61Z"/>
  <path class="cls-1" d="M377.36,86.69c-.02,3.33-2.85,6.07-6.2,6.02-3.11-.05-5.6-2.55-5.62-5.64-.02-3.37,2.75-6.18,6.08-6.16,3.27.02,5.76,2.53,5.74,5.78Z"/>
</svg>