<?xml version="1.0" encoding="UTF-8"?>
<svg id="Layer_1" data-name="Layer 1" xmlns="http://www.w3.org/2000/svg" width="380" height="129" viewBox="0 0 380 129">
  <defs>
    <style>
      .cls-1 {
        fill: #000;
      }

      .cls-1, .cls-2 {
        stroke-width: 0px;
      }

      .cls-2 {
        fill: #e8701b;
      }
    </style>
  </defs>
  <path class="cls-1" d="M89.24,60.37v21.81h-12.81v-20.01c0-7.14-3.19-10.14-10.68-10.14-6.54,0-12.68,3.19-12.68,11.01v19.15h-12.81v-20.02c0-7.14-3.2-10.14-10.68-10.14-6.61,0-12.68,3.19-12.68,11.01v19.15H4.03v-39.64h12.88v7.34c4.3-5.64,11.06-8.87,18.15-8.67,7.67,0,14.01,3.07,16.68,10.48,4.47-6.48,10.61-10.48,19.48-10.48,10.21,0,17.95,5.4,18.02,19.15Z"/>
  <path class="cls-1" d="M136.02,42.82v6.74c-4-5.74-11.08-8.34-19.41-8.34-11.61,0-22.89,5.74-22.89,21.15s11.28,21.15,22.89,21.15c8.34,0,15.42-2.6,19.41-8.34v7.27h13.01v-39.64h-13.01ZM121.47,72.71c-9.47,0-14.28-3.6-14.28-10.34s4.81-10.34,14.28-10.34,14.55,3.67,14.55,10.34c0,6.74-5,10.34-14.55,10.34Z"/>
  <path class="cls-1" d="M191.53,41.22c-11.08,0-18.08,4.14-23.02,10.41v-9.08h-12.88v39.64h12.88v-15.61c0-9.81,6.74-14.55,17.35-14.55s14.01,4.67,14.01,13.81v16.35h12.81v-20.69c-.07-14.88-8.47-20.28-21.15-20.28Z"/>
  <path class="cls-2" d="M259.4,42.55v6.81c-4-5.61-11.01-8.14-19.22-8.14-11.55,0-23.09,5.6-23.09,20.69s11.54,20.68,23.08,20.68c8.21,0,15.21-2.53,19.22-8.14v3c0,8.81-4.87,11.74-14.89,11.74-7.73-.18-15.42-1.15-22.96-2.87l-1.47,9.88c8.89,2.16,18.01,3.28,27.16,3.34,16.42,0,24.89-6.34,24.96-21.82v-35.16h-12.8ZM244.99,71.78c-9.94,0-14.41-3.6-14.41-9.88s4.47-9.88,14.41-9.88,14.42,3.67,14.42,9.88-4.48,9.88-14.42,9.88h0Z"/>
  <path class="cls-2" d="M326.15,44.8c5.12-1.16,9.82-5.68,9.82-5.68,0,0-6.48-3.56-11.99-2.83-2.81.41-5.34,1.9-7.06,4.16-.28-.05-.56-.1-.85-.14.57-2.44.86-4.94.87-7.45.02-1.13-.02-2.26-.09-3.39l-5.05.75c.82,3.2,1.15,6.51.97,9.81-4.7-.04-9.38.67-13.86,2.1-17.2,5.15-24.73,15.34-20.85,28.32,3.88,12.98,15.78,17.36,32.97,12.21,17.26-5.17,24.8-15.36,20.91-28.34-.98-3.66-2.99-6.96-5.79-9.52ZM305,72.25c-10.45,0-15.16-3.6-15.16-9.88s4.7-9.88,15.16-9.88,15.16,3.67,15.16,9.88c0,6.27-4.7,9.88-15.15,9.88h-.01Z"/>
  <path class="cls-2" d="M355.3,52.6c1.42-.48,2.32-1.87,2.17-3.37,0-2.58-1.76-3.85-4.94-3.85h-9.36v12.2h3.54v-3.46h5.71c1.2,0,1.47.31,1.47,1.45v2.01h3.52v-2.69c.09-1.18-.8-2.21-1.98-2.29-.04,0-.09,0-.13,0ZM351.65,51.23h-4.96v-2.95h4.96c1.06,0,2.1,0,2.1,1.49s-1.02,1.47-2.1,1.47h0Z"/>
  <path class="cls-2" d="M375.97,45.39h-4.84l-3.88,3.91-3.88-3.91h-4.84l6.33,6.1-6.33,6.11h4.84l3.88-3.92,3.88,3.92h4.84l-6.33-6.11,6.33-6.1Z"/>
</svg>