<?xml version="1.0" encoding="UTF-8"?>
<svg id="Layer_2" data-name="Layer 2" xmlns="http://www.w3.org/2000/svg" width="380" height="129" viewBox="0 0 380 129">
  <defs>
    <style>
      .cls-1 {
        fill: #003f82;
        stroke-width: 0px;
      }
    </style>
  </defs>
  <path class="cls-1" d="M50.3,112.33c-25.66.27-48.03-20.69-47.97-47.96.06-26.15,21.29-48,48.63-47.7,25.72.28,47.42,20.69,47.43,47.84.01,28.02-23.01,48.17-48.09,47.82ZM11.3,64.49c.15,21.16,16.76,39.22,39.37,39.27,22.19.05,39.19-17.55,39.4-38.84.22-21.71-17.05-39.41-38.97-39.62-22-.22-39.58,17.26-39.81,39.19Z"/>
  <path class="cls-1" d="M205.86,58.98c0-6.14,0-12.28,0-18.42,0-.47.02-.94,0-1.4-.03-.79.3-1.18,1.13-1.18,2.23.02,4.45-.02,6.68.01,1.1.02,1.2.12,1.22,1.25.04,2.16.01,4.33.02,6.49,0,2.28-.02,4.56,0,6.84.02,1.64.15,1.8,1.83,1.81,4.63.02,9.26.02,13.89,0,1.73,0,1.85-.15,1.86-1.96.02-4.03,0-8.07,0-12.1q0-2.34,2.29-2.34c1.88,0,3.75.02,5.62,0,.8,0,1.21.3,1.16,1.14-.02.35,0,.7,0,1.05,0,12.63,0,25.26,0,37.88,0,.29,0,.58,0,.88-.05,1.27-.07,1.33-1.27,1.35-2.17.03-4.34.03-6.5,0-1.15-.02-1.27-.14-1.29-1.37-.04-2.4-.01-4.79-.02-7.19,0-2.69.02-5.38-.01-8.07-.02-1.67-.16-1.82-1.82-1.82-4.63-.02-9.26-.02-13.89,0-1.76,0-1.87.14-1.88,1.94-.01,4.68,0,9.35,0,14.03,0,.47-.02.94,0,1.4.01.7-.26,1.09-1.02,1.09-2.34-.02-4.69-.01-7.03,0-.65,0-.97-.31-.97-.96,0-.47-.01-.94-.01-1.4,0-6.31,0-12.63,0-18.94Z"/>
  <path class="cls-1" d="M118.46,80.29c-.47,0-.94-.02-1.41-.02-.58,0-.89-.32-.89-.86-.02-1.99-.1-3.98.05-5.95.05-.66.64-1.35,1.11-1.91,5.17-6.2,18.77-22.42,20.39-24.35.19-.22.4-.43.56-.67.39-.59.29-.86-.38-.92-.52-.05-1.05-.03-1.58-.03-5.33,0-10.66,0-15.99,0-.47,0-.94-.01-1.41,0-.64,0-1-.29-1.01-.94-.01-1.87,0-3.74,0-5.61,0-.74.43-1.03,1.13-1.02.35,0,.7-.01,1.05-.01,9.66,0,19.33,0,28.99,0,2.13,0,2.13,0,2.14,2.09,0,1.17-.06,2.34.02,3.51.07,1.13-.3,2-1.03,2.86-3.79,4.46-17.38,20.69-20.42,24.32-.23.27-.46.53-.65.82-.15.23-.24.51-.36.76.3.12.59.35.89.35,2.4.03,15.87.01,20.21.03,1.74,0,1.78.06,1.81,1.76.02,1.4.02,2.81,0,4.21-.03,1.53-.09,1.59-1.6,1.6-4.39.02-26.47,0-31.63,0Z"/>
  <path class="cls-1" d="M169.35,74.8c0-4.21-.07-8.42.03-12.63.04-1.68.31-3.38.71-5.01.62-2.52,2.01-4.61,4.3-5.96,5.26-3.12,10.81-3.95,16.68-1.95,3.17,1.08,5.42,3.15,6.84,6.16.93,1.98,1.53,4.07,1.73,6.22.35,3.92.23,7.83-1.29,11.56-.42,1.02-.91,2.04-1.51,2.96-3.54,5.41-9.24,6.57-14.64,4.75-1.6-.54-2.81-1.65-3.87-2.94-.16-.19-.45-.28-.67-.42-.1.26-.28.51-.28.77-.02,2.98-.03,5.96-.02,8.95,0,2.84-.04,2.49-2.46,2.51-1.23,0-2.46,0-3.69,0-1.86-.01-1.87-.01-1.87-1.81,0-3.62,0-7.25,0-10.87,0-.76,0-1.52,0-2.28,0,0,.01,0,.02,0ZM191.58,64.09c-.09-.78-.12-1.66-.3-2.51-.18-.85-.44-1.69-.79-2.49-1.23-2.85-3.58-4.12-6.39-3.98-2.92.15-4.87,1.74-5.86,4.5-.68,1.89-.91,3.87-.83,5.85.07,1.85.28,3.72,1.14,5.43,1.25,2.48,3.29,3.83,6,3.86,2.68.03,4.63-1.36,5.85-3.76,1.09-2.15,1.22-4.46,1.18-6.89Z"/>
  <path class="cls-1" d="M348.96,59.12c0-6.2,0-12.39,0-18.59,0-.47.02-.94,0-1.4-.03-.82.36-1.15,1.16-1.15,1.93.02,3.87.02,5.8,0,.73,0,1.07.36,1.08,1.07,0,.47.02.93.02,1.4,0,3.68,0,7.37,0,11.05,0,.52.03,1.05.08,1.57.02.15.16.41.24.41.19,0,.39-.12.57-.22.09-.05.15-.18.23-.27,3.46-4.17,7.91-4.87,12.87-3.56,3.82,1.01,5.63,3.78,6.24,7.46.26,1.55.37,3.13.38,4.7.04,5.55.02,11.11.02,16.66,0,.35-.02.7,0,1.05.01.66-.3.96-.96.95-2.11,0-4.22,0-6.33,0-.66,0-.97-.3-.96-.96,0-.47,0-.94,0-1.4,0-5.09.05-10.17-.03-15.26-.02-1.43-.29-2.91-.71-4.28-.6-1.92-2.11-2.87-4.11-3.01-.52-.04-1.06-.03-1.58,0-2.47.14-4.17,1.3-5.05,3.66-.78,2.07-.8,4.24-.84,6.39-.09,4.09-.03,8.18-.03,12.27,0,.41.01.82,0,1.23-.07,1.21-.15,1.33-1.32,1.35-1.82.03-3.63.03-5.45,0-1.2-.02-1.23-.09-1.29-1.34-.02-.41,0-.82,0-1.23,0-6.2,0-12.39,0-18.59Z"/>
  <path class="cls-1" d="M308.41,65.22c.1,3.56.18,7.12.32,10.68.05,1.1.26,2.2.44,3.29.17,1.04.2,1.08-.89,1.09-1.93.03-3.87-.03-5.8.03-.95.03-1.41-.37-1.57-1.24-.05-.29-.08-.58-.16-.86-.12-.45-.4-.53-.78-.29-.05.03-.1.06-.14.1-3.12,2.59-6.81,3.24-10.71,2.99-1.21-.08-2.45-.29-3.6-.66-4.54-1.47-6.15-5.45-5.68-9.69.41-3.68,2.58-6.02,6.05-6.93,2.76-.73,5.63-1,8.45-1.49,1.21-.21,2.43-.39,3.59-.77,1.64-.53,2.47-1.69,2.45-3.06-.02-1.79-1-3.19-2.66-3.72-1.66-.52-3.35-.52-5.03-.15-1.66.37-2.8,1.36-3.38,3-.48,1.36-.53,1.35-1.98,1.36-1.7,0-3.4.02-5.1,0-1.49-.02-1.55-.15-1.24-1.67.63-3.03,2.43-5.11,5.11-6.53,1.95-1.03,4.08-1.52,6.23-1.7,3.27-.28,6.57-.26,9.75.7,1.32.4,2.62,1.04,3.75,1.83,1.79,1.24,2.62,3.1,2.64,5.28.02,2.81,0,5.61,0,8.42-.03,0-.06,0-.08,0ZM300.53,67.81h-.09c0-.3,0-.6,0-.89,0-.12,0-.23,0-.35-.07-1.04-.14-1.05-1.15-.8-1.3.33-2.61.6-3.92.85-1.77.34-3.61.46-5.21,1.4-1.62.95-2.42,2.7-2.05,4.46.35,1.67,1.56,2.82,3.42,3.03,1.15.13,2.33.14,3.48.01,2.63-.29,4.53-2.04,5.09-4.61.22-1.02.3-2.07.44-3.11Z"/>
  <path class="cls-1" d="M265.4,66.96c-3.11,0-6.21,0-9.32,0-1.87,0-2.11.34-1.69,2.21.63,2.85,2.14,4.97,5.15,5.56,3.23.62,6.24.16,8.41-2.61.66-.84,1.27-1.2,2.31-1.14,1.46.08,2.93,0,4.39.04,1.01.03,1.13.22.75,1.17-2,5.07-5.68,8.09-11.1,8.75-2.49.3-5.04.32-7.5-.39-5.35-1.52-8.81-4.98-10.2-10.34-1.32-5.06-.95-9.99,1.92-14.5,2.7-4.26,6.73-6.38,11.69-6.78,2.53-.2,5.04.06,7.4,1.1,4.82,2.11,7.31,6.03,8.39,10.97.28,1.3.37,2.66.42,3.99.08,1.96.03,1.97-1.88,1.98-3.05,0-6.09,0-9.14,0ZM261.19,61.83h0c1.58,0,3.16,0,4.73,0,.47,0,.94,0,1.4-.05.57-.06.82-.4.68-.97-.48-1.97-1.2-3.79-3.05-4.91-3.88-2.36-9.26-.26-10.49,4.09-.42,1.5-.24,1.8,1.29,1.83,1.81.04,3.62,0,5.43,0Z"/>
  <path class="cls-1" d="M330.72,65.3c0-2.86.02-5.73,0-8.59-.01-1.48-.14-1.58-1.61-1.63-.76-.03-1.52-.02-2.28-.02-.71,0-1.11-.3-1.11-1.03,0-1.11,0-2.22,0-3.33,0-.84.45-1.11,1.23-1.08.88.03,1.76-.02,2.64,0,.82.02,1.16-.37,1.15-1.17,0-2.1,0-4.21.01-6.31.01-1.63.03-1.65,1.67-1.66,1.82-.01,3.63.02,5.45,0,.82-.01,1.15.32,1.14,1.14-.02,2.1-.02,4.21,0,6.31.02,1.62.07,1.66,1.68,1.69,1.05.02,2.11.03,3.16,0,.78-.02,1.23.25,1.23,1.09-.01,1.11,0,2.22,0,3.33,0,.74-.41,1.03-1.12,1.03-1.11,0-2.23-.01-3.34.02-1.47.04-1.6.15-1.6,1.63-.02,3.86,0,7.71,0,11.57,0,.82,0,1.64,0,2.45.04,2.61.85,3.4,3.52,3.43.47,0,.94,0,1.41-.01.7-.03,1.14.23,1.14.98,0,1.4,0,2.8,0,4.21,0,.72-.43,1.11-1.07,1.15-3.27.21-6.57.48-9.69-.85-2.51-1.06-3.49-3.18-3.55-5.76-.06-2.86-.01-5.73-.01-8.59h0Z"/>
  <path class="cls-1" d="M313.85,40.22c0-.47-.08-.96.05-1.39.09-.31.45-.77.71-.78,2.22-.06,4.45-.05,6.67-.04.59,0,.81.37.82.91,0,.41.01.82.01,1.23,0,12.67,0,25.34,0,38.01,0,2.23.12,2.13-2.07,2.13-1.29,0-2.58,0-3.86,0-2.56-.01-2.31.18-2.32-2.41-.01-3.15,0-31.41,0-37.66Z"/>
  <path class="cls-1" d="M164.56,78.48c0,1.79-.01,1.8-1.87,1.8-1.52,0-3.04,0-4.57,0-1.79-.01-1.79-.02-1.8-1.88,0-.7,0-1.4,0-2.1,0-8.12,0-16.24,0-24.36,0-.47.02-.93,0-1.4,0-.68.35-.92.99-.92,2.05.01,4.1.03,6.15,0,.87-.01,1.1.4,1.09,1.18-.02,2.51,0,23.19,0,27.69Z"/>
  <path class="cls-1" d="M160.46,37.99c1.05,0,2.11,0,3.16,0,.66,0,.95.32.94.97-.01,1.58-.01,3.15,0,4.73,0,.58-.31.89-.85.89-2.16.02-4.33.01-6.49,0-.55,0-.85-.33-.85-.9,0-1.58,0-3.15,0-4.73,0-.65.31-.97.96-.97,1.05,0,2.11,0,3.16,0Z"/>
  <path class="cls-1" d="M42.08,74.48c0-1.68-.08-1.77-1.8-1.78-5.04-.02-10.08,0-15.11,0-.53,0-1.05-.02-1.58,0-.88.02-1.27-.38-1.26-1.27.03-1.4,0-2.81,0-4.21,0-2.92,0-5.84,0-8.77,0-2.44.04-2.15,2.24-2.15,4.92,0,9.84,0,14.76,0,.41,0,.82,0,1.23,0,1.45-.04,1.49-.06,1.51-1.48.03-2.16,0-13.27.01-16.66,0-1.53.03-1.56,1.59-1.56,4.39-.02,8.79-.02,13.18,0,1.58,0,1.65.08,1.66,1.74.02,4.85,0,9.7,0,14.55,0,4.07-.21,3.37,3.34,3.4,4.74.04,9.49,0,14.24.01.41,0,.82.03,1.23,0,.85-.06,1.13.36,1.12,1.16-.03,1.87,0,3.74,0,5.61,0,2.57,0,5.14,0,7.72,0,1.9-.02,1.92-1.99,1.92-5.04,0-10.08,0-15.11,0q-2.81,0-2.81,2.77c0,4.85,0,9.7,0,14.55,0,.47-.02.94-.01,1.4.01.8-.36,1.15-1.18,1.15-4.69-.01-9.37,0-14.06-.01-1.11,0-1.17-.08-1.18-1.24-.03-2.86,0-14.09-.01-16.83Z"/>
</svg>