<?xml version="1.0" encoding="UTF-8"?>
<svg id="Layer_2" data-name="Layer 2" xmlns="http://www.w3.org/2000/svg" viewBox="0 0 380 129">
  <defs>
    <style>
      .cls-1 {
        fill: #dd4a01;
        stroke-width: 0px;
      }
    </style>
  </defs>
  <g id="Layer_1-2" data-name="Layer 1-2">
    <g>
      <path class="cls-1" d="M373.7,85.03c-.26-.51-.75-.77-1.47-.77h-1.85c-.51,0-.9.08-1.16.23s-.69.54-1.31,1.15c-6.28,6.59-14.31,9.88-24.09,9.88-4.94,0-9.42-1-13.44-3.01-4.01-2.01-6.02-4.19-6.02-6.56,0-.72.23-1.31.69-1.78.47-.47,1-.69,1.62-.69,4.63,4.94,10.66,7.41,18.07,7.41s13.53-2.19,18.38-6.56c4.83-4.37,7.26-9.91,7.26-16.59,0-5.25-1.6-9.88-4.79-13.9-3.19-4.01-7.54-7.1-13.05-9.26-5.51-2.16-11.71-3.24-18.6-3.24-9.16,0-17.17,1.78-24.01,5.33-6.85,3.55-12.12,8.42-15.83,14.59-2.06,3.43-3.54,7.13-4.46,11.09h0c-4.5,13.6-16.4,15.99-25.18,15.99-3.37,0-6.59-.61-9.65-1.84-3.07-1.22-5.46-2.71-7.2-4.44-1.74-1.73-2.61-3.52-2.61-5.36s.87-2.75,2.61-2.75c3.47,6.54,9.39,9.8,17.76,9.8,6.13,0,11.13-1.79,15.01-5.36,3.88-3.57,5.82-8.22,5.82-13.94,0-6.74-2.53-12.33-7.58-16.77-5.05-4.44-11.51-6.66-19.37-6.66-5.92,0-11.26,1.38-16,4.13-4.75,2.76-8.45,6.64-11.1,11.64V15.45c0-1.73-.38-2.99-1.15-3.75-.77-.77-2.12-1.15-4.06-1.15h-39.66c-1.22,0-1.84.52-1.84,1.53v1.84c0,.41.08.74.23,1,.16.25.59.59,1.3.99,2.76,1.64,4.65,3.4,5.67,5.28,1.02,1.89,1.53,4.62,1.53,8.2v62.15c0,4.06-1.7,8.39-2.1,9.21-.41.82-1.07,1.22-1.99,1.22-.72,0-1.22-.31-1.53-.92-.3-.61-.46-1.78-.46-3.52v-19.14c0-12.25-3.4-21.54-10.18-27.87-6.79-6.33-16.72-9.5-29.79-9.5-10.93,0-19.71,2.07-26.34,6.2-6.64,4.13-9.96,9.62-9.96,16.46,0,5.11,1.84,9.22,5.51,12.33,3.67,3.12,8.62,4.67,14.86,4.67s11.15-1.53,15.08-4.6c3.93-3.06,5.9-6.94,5.9-11.64,0-3.98-1.38-7.25-4.14-9.8s-6.28-3.83-10.56-3.83c-.31-.51-.46-1.02-.46-1.54,0-1.43,1.07-2.14,3.21-2.14,4.49,0,8.37,1.71,11.64,5.13,3.27,3.42,4.9,7.48,4.9,12.18,0,11.74-9.39,18.83-28.18,21.29-7.35,1.02-12.79,2.98-16.31,5.89-.57.47-1.09.97-1.57,1.5,1.09-3.84,1.64-7.88,1.64-12.14,0-2.04-.56-3.06-1.68-3.06h-1.99c-.51,0-.9.08-1.15.23-.26.16-.69.53-1.3,1.15-3.17,3.27-6.36,5.59-9.57,6.97s-6.92,2.07-11.1,2.07c-4.7,0-8.91-1.09-12.63-3.29-3.73-2.2-6.62-5.08-8.65-8.65-2.05-3.57-3.07-7.5-3.07-11.79,0-4.8,1.63-8.91,4.9-12.33,3.27-3.42,7.15-5.13,11.64-5.13,2.14,0,3.21.72,3.21,2.14,0,.52-.15,1.02-.46,1.54-4.29,0-7.81,1.28-10.57,3.83-2.76,2.55-4.13,5.82-4.13,9.8,0,5.41,1.97,9.98,5.89,13.71,3.93,3.73,8.75,5.59,14.47,5.59,6.13,0,11.15-1.86,15.08-5.59,3.93-3.73,5.9-8.4,5.9-14.01,0-4.6-1.48-8.65-4.44-12.17-2.96-3.52-6.97-6.23-12.02-8.11-5.05-1.89-10.8-2.84-17.23-2.84-8.99,0-16.92,1.82-23.81,5.44-6.89,3.63-12.17,8.52-15.85,14.7-3.67,6.17-5.51,13.14-5.51,20.91s1.84,15.16,5.51,21.28c3.68,6.13,8.68,10.85,15.01,14.17,6.33,3.32,13.42,4.98,21.28,4.98,8.27,0,15.62-1.86,22.05-5.59,6.43-3.72,11.4-8.73,14.93-15.01-.04.52-.07,1.06-.07,1.6,0,5.72,2.14,10.31,6.43,13.78,4.29,3.47,9.95,5.21,17,5.21,5,0,9.21-1.02,12.63-3.07,3.42-2.03,6.3-5.26,8.66-9.65,4.39,8.48,11.74,12.71,22.05,12.71,7.86,0,13.91-2.22,18.15-6.66.45-.47.86-.96,1.26-1.47v1.39c0,3.27,1.74,4.9,5.21,4.9h27.56c1.84,0,3.17-.38,3.98-1.15.81-.77,1.22-2.02,1.22-3.76v-29.86c0-7.14,1.1-13.81,3.3-19.98,2.19-6.17,5.13-10.9,8.8-14.17,3.67-3.26,7.91-4.9,12.71-4.9.81,0,1.5.18,2.07.54.56.36.84.9.84,1.61s-.21,1.32-.61,1.84c-6.84,0-12.3,3.14-16.39,9.42-4.09,6.28-6.13,14.58-6.13,24.89,0,11.74,2.45,20.9,7.35,27.49,4.9,6.59,11.74,9.88,20.52,9.88s15.31-3.6,20.21-10.8c2.84-4.16,4.85-9.25,6.04-15.25.93,2.59,2.13,5.06,3.61,7.4,3.96,6.28,9.29,11.12,15.98,14.51,6.69,3.4,14.2,5.09,22.54,5.09,7.82,0,14.9-1.65,21.23-4.94,6.33-3.29,11.22-7.64,14.67-13.04,3.45-5.4,5.18-11.29,5.18-17.67,0-1.34-.13-2.26-.39-2.78h0ZM326.19,49.39c.81-.8,1.88-1.2,3.22-1.2,2.42,0,3.62,1,3.62,3.01v21.36c0,2.01-1.2,3-3.62,3-1.34,0-2.42-.4-3.22-1.2v-24.97h0ZM150.11,102.9c-.61.82-1.43,1.22-2.45,1.22-1.74,0-2.6-1.02-2.6-3.06v-9.8c0-2.05.87-3.06,2.6-3.06,1.02,0,1.84.41,2.45,1.22v13.48h0Z"/>
      <path class="cls-1" d="M28.73,56.9c-.95-1.13-1.79-2.3-2.5-3.52-.72-1.21-1.23-2.28-1.53-3.2-.31-.92-.37-1.5-.19-1.75.15-.21.38-.2.68.02.46.33,1.19,1.06,2.21,2.17,1.18,1.26,2.03,2.08,2.56,2.47,1.07.77,2.06,1.12,2.98,1.03.92-.09,1.73-.61,2.44-1.59.86-1.18,1.3-2.47,1.32-3.86,0-.32,0-.65-.02-.98.29.09.6.16.9.2,1.89.28,3.84-.31,5.83-1.76,1.46-1.07,2.57-2.43,3.33-4.08.37-.81.66-1.59.87-2.34.19.19.39.37.59.54,1.63,1.38,3.4,1.68,5.32.91,1.4-.56,2.5-1.43,3.3-2.61.43-.63.81-1.31,1.14-2.04.1.15.2.3.3.44,1.27,1.71,2.94,2.4,4.98,2.09,1.49-.23,2.75-.83,3.81-1.8.32-.29.62-.61.92-.94.32.51.7.98,1.16,1.39.88.81,2.02,1.29,3.39,1.45,1.4.17,2.73-.07,3.97-.71,1.25-.64,2.29-1.62,3.14-2.93.84-1.31,1.37-2.85,1.58-4.62.15-1.28.05-2.52-.3-3.7-.36-1.18-.98-2.17-1.88-2.98-.9-.81-2.03-1.29-3.41-1.46-1.42-.17-2.75.07-3.99.71s-2.27,1.62-3.1,2.93-1.35,2.85-1.57,4.62c-.06.49-.08.98-.06,1.45-.42.59-.79,1.06-1.13,1.41-.64.66-1.43,1.06-2.38,1.21-.61.1-1.13-.03-1.56-.38s-.81-.99-1.12-1.91c2.07-3.98,3.59-7.92,4.56-11.8.97-3.88,1.24-7.21.81-9.97-.3-1.93-.85-3.36-1.65-4.29-.8-.94-1.76-1.32-2.87-1.14-1.97.3-3.47,1.87-4.5,4.69-1.03,2.82-1.63,6.1-1.8,9.84-.17,3.74-.04,7.02.4,9.86.13.86.31,1.67.51,2.42-.49,1.42-.94,2.48-1.37,3.18-.47.78-1.15,1.35-2.05,1.71-.57.23-1.1.22-1.6-.02s-1.01-.78-1.52-1.61c1.12-4.35,1.72-8.52,1.79-12.52.07-4-.41-7.3-1.45-9.9-.73-1.81-1.58-3.08-2.57-3.81-.99-.73-2.01-.89-3.06-.47-1.85.74-2.96,2.6-3.33,5.58-.36,2.98-.21,6.31.46,9.99.67,3.68,1.54,6.85,2.61,9.52.29.71.59,1.38.91,2-.13,1.4-.49,2.73-1.09,4-.66,1.39-1.41,2.4-2.27,3.03-1.33.97-2.55,1.19-3.66.66,1.84-2.18,2.89-4.09,3.14-5.71.26-1.63-.1-3.09-1.05-4.41-.82-1.12-1.8-1.77-2.94-1.94-1.14-.17-2.26.15-3.37.95-1.24.9-2.1,2.04-2.59,3.42s-.61,2.83-.33,4.36.89,2.95,1.84,4.26c.18.25.37.48.56.7.13.66.22,1.21.27,1.66.09.86,0,1.48-.29,1.86-.4.55-.98.55-1.74,0-.53-.39-1.5-1.36-2.89-2.92-1.64-1.83-2.83-3.01-3.57-3.55-1.24-.9-2.3-.73-3.2.51-.46.63-.74,1.48-.85,2.55-.11,1.07.07,2.36.53,3.87.46,1.51,1.27,3.16,2.43,4.97-1.05-.76-2.04-1.53-2.99-2.3-.92-4.53-2.01-8.11-3.26-10.73s-2.83-4.63-4.76-6.02c-1.2-.87-2.37-1.31-3.52-1.31-1.14,0-2.03.43-2.67,1.31-1.19,1.64-1.13,3.82.18,6.56,1.31,2.74,3.34,5.56,6.08,8.46,2.74,2.9,5.58,5.42,8.51,7.55l2.26,1.69c.35.28.83.64,1.44,1.08,1.07.77,1.87,1.22,2.41,1.33.54.12,1.02-.11,1.43-.68,1.04-1.43.92-2.87-.34-4.34h0ZM71.38,31.24c.2-1.68.63-2.91,1.28-3.7.65-.79,1.4-1.13,2.23-1.03.65.08,1.17.47,1.56,1.18.39.71.51,1.71.35,2.99-.2,1.66-.62,2.88-1.27,3.68-.65.8-1.38,1.15-2.17,1.06-.7-.08-1.25-.47-1.64-1.15-.39-.68-.51-1.69-.35-3.02h0ZM59.31,19.78c.07-2.94.29-5.42.67-7.45.37-2.03.83-3.09,1.36-3.17.65-.1,1.11.73,1.39,2.5.35,2.25.25,4.82-.31,7.7-.55,2.88-1.45,5.81-2.68,8.78-.36-2.63-.5-5.42-.43-8.35h0ZM44.94,12.48c.61-.24,1.25.46,1.91,2.12.85,2.12,1.32,4.64,1.43,7.57.11,2.93-.1,5.98-.63,9.16-.94-2.49-1.71-5.16-2.3-8.04-.59-2.88-.94-5.35-1.03-7.41-.09-2.06.11-3.2.61-3.4h0ZM35.33,35.76c.34-.25.69-.34,1.05-.26.36.07.67.29.93.65.51.7.64,1.56.38,2.56-.26,1-.85,2.04-1.78,3.13l-.04-.06c-.84-1.16-1.32-2.32-1.43-3.49-.11-1.17.18-2.01.89-2.52ZM12.88,44.2c-1.38-1.6-2.41-2.96-3.09-4.09-.68-1.13-.89-1.87-.64-2.21.18-.25.48-.32.9-.22s.94.37,1.54.81c1.33.97,2.54,2.43,3.61,4.39,1.08,1.96,1.88,4.03,2.42,6.22-1.78-1.67-3.36-3.3-4.74-4.9Z"/>
    </g>
  </g>
</svg>