<?xml version="1.0" encoding="UTF-8"?>
<svg id="Layer_2" data-name="Layer 2" xmlns="http://www.w3.org/2000/svg" width="380" height="129" viewBox="0 0 380 129">
  <defs>
    <style>
      .cls-1 {
        fill: #000;
        stroke-width: 0px;
      }
    </style>
  </defs>
  <path class="cls-1" d="M227.02,111.95c-28.59-.09-48.36-20.14-48.24-48.91.11-25.67,21.5-45.97,48.48-46,27.71-.03,48.78,20.89,48.69,48.31-.09,26.74-21.04,46.69-48.93,46.6ZM252.15,65.37c.06-15.81-10.19-27.19-24.64-27.33-14.11-.14-24.82,10.92-24.94,25.72-.12,16.08,9.83,27.12,24.5,27.2,14.25.08,25.01-10.9,25.07-25.59Z"/>
  <path class="cls-1" d="M104.05,28.02c11.41-3.25,22.82-6.51,35.22-10.04v13.39c6.79-9.07,14.11-14.14,24.57-14.12v23.59s-1.08.13-1.3.16c-16.81,1.71-22.22,11.74-22.65,27.5-.32,11.62-.05,23.25-.05,34.88,0,1.87,0,3.74,0,5.96h-23.63c0-4.92,0-9.65,0-14.37,0-15.82,0-31.64,0-47.46,0-12.22-.9-13.56-11.74-17.6-.14-.62-.28-1.25-.41-1.87Z"/>
</svg>